<svg id="Artboards" xmlns="http://www.w3.org/2000/svg" viewBox="0 0 1000 1000"><defs><style>.cls-1{fill:#fff;}</style></defs><g id="White_Transparent" data-name="White Transparent"><path class="cls-1" d="M930.37,463c0,4-2.3,4.49-4.7,5-10.36,2-20.7,4-31.07,5.95-51.83,9.55-103.63,19.31-155.53,28.53-48.53,8.62-97.09,17.15-145.78,24.8-46.49,7.31-93.11,13.84-139.78,19.92-30.61,4-61.37,7.08-92.13,9.68-44.12,3.71-88.32,5.6-132.6,2.66-15.87-1.06-31.64-2.9-47.12-6.7-9.71-2.39-19.08-5.68-27.46-11.3-16.36-11-20.74-26.77-12.43-44.63,5.42-11.63,14.14-20.47,24.09-28.18a155.45,155.45,0,0,1,39.06-22c9.37-3.63,18.78-7.17,28.18-10.76.17.39.35.77.52,1.16-1.33.6-2.65,1.24-4,1.81C215,445,201.17,452.35,188.7,462.15c-7.44,5.84-13.87,12.54-17.86,21.31-6.57,14.45-2.72,28.65,10.39,37.58,9.13,6.22,19.5,9.36,30.15,11.63,15.75,3.35,31.76,4.29,47.79,4.91a16,16,0,0,0,2.88-.49c-.17-2.38-.26-4.57-.48-6.76-1.82-17.94-1.71-35.85,1.42-53.65,7.18-40.74,24.55-76.62,53.19-106.45a209.94,209.94,0,0,1,105.42-60c49.2-11.51,96.55-5.06,141.71,17.09,34.38,16.86,61.64,42,83,73.69a219.44,219.44,0,0,1,23.1,45.1c5,13.2,14.63,21.31,28.74,22.83a278.88,278.88,0,0,0,31.54,1.43c50.2-.35,100.31-2.9,150.4-6.15,14.8-1,29.64-1.45,44.46-2A32.56,32.56,0,0,1,930.37,463ZM471.87,351.35c-17.58.06-34.35,2.14-50.58,7.41C362,378,323.92,417.47,307.52,477.83c-4.92,18.08-3.92,36.51-4.37,54.87-.1,4,.59,4.53,4.82,4.3,15.28-.82,30.58-1.36,45.8-2.74,43.47-3.93,87-7.78,130.36-12.49,35.41-3.85,70.71-8.84,106-13.43,13.83-1.8,27.63-3.91,41.45-5.86,1.83-.26,3.38-.39,3.54-3,.5-8.31,1.26-16.66-1.35-24.73C625.47,449,613,425.59,594.4,405.68,561.13,370,520.14,351.81,471.87,351.35Z"/><path class="cls-1" d="M279.34,591.25c6.57-.81,12.86-1.59,19.15-2.34,7.08-.84,14.16-1.56,21.22-2.51,2.14-.29,3.53-.09,4.75,2,19.61,33.65,49.49,53.24,86.51,63,25.34,6.69,51.16,8.68,77.26,8,47.43-1.28,93.88-9.42,139.87-20.54,14.72-3.56,29.71-3.33,44.67-4,12.72-.6,25.43-1.72,38.09-3.17s25.24-3.3,37.76-5.55c7.85-1.41,15.52-3.87,23.25-5.91a213.8,213.8,0,0,1,21.7-5c-2.13,1.23-4.2,2.59-6.4,3.66-16.82,8.16-33.5,16.63-50.54,24.3-27.55,12.39-56.3,21.47-85.37,29.55A706.12,706.12,0,0,1,546,693.33c-42.32,5.07-84.7,6.41-126.95-.72-35.26-6-67.23-19.45-94.55-42.91-18.22-15.65-32.67-34.41-44.06-55.54A27.59,27.59,0,0,1,279.34,591.25Z"/><path class="cls-1" d="M258.33,414.75c-4.79,1.46-9.58,2.89-14.36,4.36-27.44,8.45-54.17,18.68-79.24,32.81-15.33,8.63-29.56,18.74-41.17,32.23-18,21-18.59,48-1.61,69.83,14.06,18,32.42,30.45,52.51,40.39,35.13,17.39,72.41,28.09,111.07,34.14l2.61.37.05,1h-6.08c-2.23,0-4.45,0-6.68,0a383.58,383.58,0,0,1-80.87-8.65c-29.61-6.55-57.93-16.59-83.73-32.87-12.78-8.06-24.18-17.72-32.42-30.66C67.17,540,67,521.9,76.42,503.53c7.25-14.08,18.5-24.58,31.1-33.76,21.93-16,46.37-27,71.88-35.73,25-8.61,50.74-14.64,76.67-19.76a20.93,20.93,0,0,1,2.11-.19Z"/><path class="cls-1" d="M675.61,630.71c8.4-2.28,16.86-4.35,25.19-6.87,29.79-9,58.57-20.45,85.34-36.46,16.39-9.81,31.56-21.29,43.48-36.38a103.55,103.55,0,0,0,11.53-19c5.37-11,5.56-22.67,2.34-34.34-.9-3.25-.17-5.15,2.83-6.34,9.06-3.62,18.22-4.83,27.78-1.76,3.46,1.12,5.32,3.2,6.8,6.37,8.69,18.6,5.91,36.1-4.93,52.81-7.45,11.5-17.31,20.7-28.3,28.69-21.45,15.6-45.18,26.69-70.22,35.09a365.7,365.7,0,0,1-84,17.23l-16,1.4c-.58,0-1.17,0-1.76,0Z"/><path class="cls-1" d="M363.41,582.07c2.53-.41,4.27-.63,6-1,3.35-.72,5.53.51,8.15,2.89,13.16,11.95,25.24,25.46,41.41,33.49C440.21,628,462.8,634.8,486.7,633.32c25.71-1.6,50.56-7.54,72.26-22.5a118.49,118.49,0,0,0,40.85-48.44c.37-.81.69-1.64,1-2.47,2.66-6.31,3.64-6.84,11.74-6-1.1,3.12-2.11,6.15-3.22,9.14-9.9,26.75-28.19,45.83-53.06,59.39a165.81,165.81,0,0,1-56.15,19.11c-28.55,4.08-56.22.58-82.47-12.14a137,137,0,0,1-51.38-43C365.44,585.21,364.67,584,363.41,582.07Z"/><path class="cls-1" d="M598.32,628.36c2.69-3.28,4.81-5.91,7-8.5,14.62-17.58,23.63-37.94,29.32-59.88,2.68-10.31,2.51-10.26,13.08-11.33,9.58-1,19.15-2.16,28.72-3.3,4.26-.5,4.51-.44,5,3.91a18.41,18.41,0,0,1-.23,5.69c-.79,3.77-2,7.46-2.85,11.21-2.8,11.84-10.34,20.52-18.92,28.48-14.93,13.84-32.65,23-51.33,30.59-2.47,1-5,1.91-7.49,2.83A16,16,0,0,1,598.32,628.36Z"/><path class="cls-1" d="M689.48,413.62c10,1.36,20,2.58,29.91,4.11,22.89,3.52,45.57,8,67.66,15.08,15.27,4.89,30.31,10.37,44.41,18.13a10.1,10.1,0,0,1,2.2,1.48c2.68,2.55,2.28,4.78-.89,6.57-7.85,4.44-15.82,3.44-22.85-1-28.87-18.22-60.71-28.76-93.47-37-9-2.28-18.12-4.28-27.19-6.41C689.33,414.23,689.41,413.93,689.48,413.62Z"/><path class="cls-1" d="M614.89,324.83a310.6,310.6,0,0,0-162.34-44C502.35,271.92,583.94,294,614.89,324.83Z"/><path class="cls-1" d="M374.15,703.13a311.52,311.52,0,0,0,83.34,13.09,303,303,0,0,0,83.27-9.33C484.76,725.79,429.11,727.3,374.15,703.13Z"/><path class="cls-1" d="M597,449.27c-7.31,2.12-7.84,2-11.76-3.79-8.63-12.76-18.34-24.5-31.29-33.17-16.41-11-33.47-20.63-53.65-22.38-30.88-2.69-60.35,2.44-87.86,17.15A203.85,203.85,0,0,0,394,417.89c-18.36,12.49-29.68,30.41-38,50.49-1.77,4.25-3.14,8.65-4.74,13-1.81,4.9-2,5-7.87,4.68,7.25-43.91,44.55-94,106.78-104.8C519.42,369.16,575.53,406.31,597,449.27Z"/></g></svg>